<svg width="92" height="61" viewBox="0 0 92 61" fill="none" xmlns="http://www.w3.org/2000/svg">
<path d="M15.0981 56.1133H12.7859V51.0403C12.7859 50.3271 12.6594 49.8037 12.4063 49.4701C12.1648 49.125 11.8254 48.9525 11.3883 48.9525C10.9397 48.9525 10.5083 49.1308 10.0942 49.4874C9.69155 49.8325 9.40397 50.2868 9.23142 50.8505V56.1133H6.91925V51.0403C6.91925 50.3156 6.79271 49.7865 6.53964 49.4529C6.29807 49.1193 5.95872 48.9525 5.52159 48.9525C5.07297 48.9525 4.64159 49.125 4.22747 49.4701C3.82485 49.8152 3.53727 50.2696 3.36472 50.8333V56.1133H1.05255V47.0717H3.14041V48.7454C3.48551 48.1587 3.94564 47.7101 4.52081 47.3995C5.09597 47.0774 5.75741 46.9164 6.50513 46.9164C7.25284 46.9164 7.83376 47.1004 8.24788 47.4685C8.6735 47.8366 8.94383 48.291 9.05887 48.8317C9.42697 48.2105 9.89286 47.7389 10.4565 47.4168C11.0317 47.0832 11.6759 46.9164 12.3891 46.9164C12.9527 46.9164 13.4071 47.0199 13.7522 47.227C14.1088 47.4225 14.3849 47.6928 14.5805 48.0379C14.776 48.3715 14.9083 48.7512 14.9773 49.1768C15.0578 49.6024 15.0981 50.0338 15.0981 50.4709V56.1133ZM20.4241 56.2858C19.6879 56.2858 19.0264 56.165 18.4398 55.9235C17.8531 55.6704 17.3527 55.3253 16.9386 54.8882C16.536 54.4511 16.2254 53.9507 16.0068 53.387C15.7883 52.8233 15.679 52.2309 15.679 51.6097C15.679 50.977 15.7883 50.3789 16.0068 49.8152C16.2254 49.2515 16.536 48.7512 16.9386 48.314C17.3527 47.8769 17.8531 47.5376 18.4398 47.296C19.0264 47.0429 19.6879 46.9164 20.4241 46.9164C21.1603 46.9164 21.816 47.0429 22.3912 47.296C22.9778 47.5376 23.4782 47.8769 23.8924 48.314C24.3065 48.7512 24.6171 49.2515 24.8241 49.8152C25.0427 50.3789 25.152 50.977 25.152 51.6097C25.152 52.2309 25.0427 52.8233 24.8241 53.387C24.6171 53.9507 24.3065 54.4511 23.8924 54.8882C23.4897 55.3253 22.9951 55.6704 22.4084 55.9235C21.8218 56.165 21.1603 56.2858 20.4241 56.2858ZM18.0602 51.6097C18.0602 52.1389 18.1637 52.6105 18.3708 53.0246C18.5778 53.4273 18.8597 53.7436 19.2163 53.9737C19.5729 54.2037 19.9755 54.3188 20.4241 54.3188C20.8612 54.3188 21.2581 54.2037 21.6147 53.9737C21.9713 53.7321 22.2531 53.41 22.4602 53.0074C22.6788 52.5933 22.788 52.1216 22.788 51.5925C22.788 51.0748 22.6788 50.6089 22.4602 50.1948C22.2531 49.7807 21.9713 49.4586 21.6147 49.2285C21.2581 48.9985 20.8612 48.8834 20.4241 48.8834C19.9755 48.8834 19.5729 49.0042 19.2163 49.2458C18.8597 49.4759 18.5778 49.798 18.3708 50.2121C18.1637 50.6147 18.0602 51.0806 18.0602 51.6097ZM30.9918 56.2858C30.3016 56.2858 29.6862 56.1305 29.1456 55.8199C28.6049 55.5094 28.1793 55.0837 27.8687 54.5431V56.1133H25.8499V43.5171H28.162V48.6591C28.4841 48.1185 28.904 47.6928 29.4216 47.3823C29.9508 47.0717 30.5662 46.9164 31.2679 46.9164C31.8546 46.9164 32.3895 47.0429 32.8726 47.296C33.3558 47.5376 33.7699 47.8769 34.115 48.314C34.4716 48.7512 34.7419 49.2515 34.926 49.8152C35.1215 50.3789 35.2193 50.9828 35.2193 51.627C35.2193 52.2712 35.11 52.8751 34.8915 53.4388C34.6844 54.0024 34.3911 54.5028 34.0115 54.9399C33.6318 55.3656 33.1832 55.6992 32.6656 55.9407C32.1594 56.1708 31.6015 56.2858 30.9918 56.2858ZM30.3534 54.3188C30.7215 54.3188 31.0551 54.2497 31.3542 54.1117C31.6648 53.9622 31.9294 53.7666 32.1479 53.525C32.378 53.2835 32.5505 53.0016 32.6656 52.6795C32.7921 52.3459 32.8554 52.0008 32.8554 51.6442C32.8554 51.1496 32.7518 50.6952 32.5448 50.2811C32.3492 49.8555 32.0731 49.5161 31.7165 49.2631C31.3714 49.01 30.9631 48.8834 30.4914 48.8834C30.1578 48.8834 29.8358 48.964 29.5252 49.125C29.2261 49.2746 28.9557 49.4816 28.7142 49.7462C28.4841 50.0108 28.3001 50.3099 28.162 50.6435V52.8003C28.231 53.0304 28.3403 53.2375 28.4899 53.4215C28.6509 53.6056 28.835 53.7666 29.042 53.9046C29.2491 54.0312 29.4619 54.1347 29.6805 54.2152C29.9105 54.2843 30.1348 54.3188 30.3534 54.3188ZM35.8096 57.8733C36.0167 57.9193 36.2065 57.9596 36.379 57.9941C36.5631 58.0286 36.7184 58.0458 36.8449 58.0458C37.0635 58.0458 37.2418 57.9883 37.3798 57.8733C37.5294 57.7698 37.6732 57.5742 37.8112 57.2866C37.9492 57.0105 38.093 56.6194 38.2426 56.1133L34.6708 47.0717H37.0692L39.5022 53.7493L41.6418 47.0717H43.8504L40.0543 57.9078C39.9163 58.3104 39.7035 58.6728 39.4159 58.9949C39.1398 59.3285 38.789 59.5873 38.3634 59.7713C37.9492 59.9669 37.4833 60.0647 36.9657 60.0647C36.7816 60.0647 36.5976 60.0474 36.4135 60.0129C36.2295 59.9899 36.0282 59.9439 35.8096 59.8749V57.8733ZM43.9161 51.6442C43.9161 50.8045 44.0944 50.0338 44.451 49.3321C44.8076 48.6304 45.2965 48.0667 45.9177 47.6411C46.5388 47.204 47.2463 46.9854 48.04 46.9854C48.8223 46.9854 49.5125 47.1925 50.1106 47.6066C50.7203 48.0207 51.1977 48.5153 51.5428 49.0905V43.5171H52.4055V54.9745C52.4055 55.1125 52.4343 55.216 52.4918 55.285C52.5608 55.3541 52.6529 55.3943 52.7679 55.4058V56.1133C52.5838 56.1363 52.4458 56.142 52.3538 56.1305C52.1467 56.096 51.9742 55.9982 51.8361 55.8372C51.6981 55.6762 51.6291 55.5036 51.6291 55.3196V54.3188C51.261 54.9169 50.7663 55.3943 50.1451 55.7509C49.524 56.1075 48.8855 56.2858 48.2298 56.2858C47.6087 56.2858 47.0335 56.1593 46.5043 55.9062C45.9752 55.6416 45.515 55.2908 45.1239 54.8537C44.7443 54.4165 44.4452 53.9219 44.2267 53.3697C44.0196 52.8176 43.9161 52.2424 43.9161 51.6442ZM51.5428 53.0937V50.1431C51.3817 49.7059 51.1229 49.3091 50.7663 48.9525C50.4097 48.5844 50.0071 48.2968 49.5585 48.0897C49.1098 47.8712 48.667 47.7619 48.2298 47.7619C47.7122 47.7619 47.2405 47.8712 46.8149 48.0897C46.4008 48.3083 46.0384 48.6016 45.7279 48.9697C45.4288 49.3378 45.1987 49.7577 45.0377 50.2293C44.8766 50.6895 44.7961 51.1669 44.7961 51.6615C44.7961 52.1676 44.8881 52.6565 45.0722 53.1282C45.2562 53.5883 45.5093 54.0024 45.8314 54.3705C46.165 54.7271 46.5446 55.009 46.9702 55.216C47.4073 55.4116 47.879 55.5094 48.3851 55.5094C48.6957 55.5094 49.0236 55.4461 49.3687 55.3196C49.7253 55.193 50.0589 55.0205 50.3694 54.8019C50.6915 54.5718 50.9561 54.313 51.1632 54.0254C51.3817 53.7263 51.5083 53.4158 51.5428 53.0937ZM54.2904 56.1133V47.1407H55.1531V56.1133H54.2904ZM54.2904 45.1046V43.5171H55.1531V45.1046H54.2904ZM60.6235 56.2513C60.0138 56.2513 59.4444 56.1248 58.9152 55.8717C58.3976 55.6186 57.949 55.2735 57.5694 54.8364C57.2013 54.3878 56.9079 53.8931 56.6894 53.3525C56.4823 52.8003 56.3788 52.2309 56.3788 51.6442C56.3788 51.0346 56.4765 50.4479 56.6721 49.8842C56.8792 49.3206 57.1667 48.8259 57.5348 48.4003C57.9145 47.9632 58.3573 47.6181 58.8635 47.365C59.3696 47.1119 59.9333 46.9854 60.5545 46.9854C61.3367 46.9854 62.0154 47.1925 62.5906 47.6066C63.1772 48.0092 63.6719 48.5038 64.0745 49.0905V47.1407H64.8682V56.2858C64.8682 57.0911 64.6727 57.7698 64.2815 58.3219C63.8904 58.8741 63.3728 59.2824 62.7286 59.547C62.0844 59.8231 61.3885 59.9611 60.6407 59.9611C59.5939 59.9611 58.76 59.7713 58.1388 59.3917C57.5291 59.0121 57.0345 58.5117 56.6548 57.8905L57.2415 57.4937C57.5981 58.0919 58.0813 58.5347 58.6909 58.8223C59.3006 59.1099 59.9505 59.2537 60.6407 59.2537C61.2504 59.2537 61.8083 59.1387 62.3145 58.9086C62.8321 58.69 63.2405 58.3564 63.5396 57.9078C63.8502 57.4707 64.0055 56.93 64.0055 56.2858V54.3188C63.6489 54.9054 63.16 55.3771 62.5388 55.7337C61.9291 56.0788 61.2907 56.2513 60.6235 56.2513ZM60.8306 55.5094C61.2102 55.5094 61.5783 55.4403 61.9349 55.3023C62.2915 55.1643 62.6193 54.9802 62.9184 54.7501C63.2175 54.5086 63.4648 54.244 63.6604 53.9564C63.8559 53.6688 63.971 53.3812 64.0055 53.0937V50.1431C63.8329 49.6829 63.5683 49.2746 63.2117 48.918C62.8666 48.5498 62.4755 48.268 62.0384 48.0725C61.6013 47.8654 61.1526 47.7619 60.6925 47.7619C60.1519 47.7619 59.6687 47.8769 59.2431 48.107C58.8175 48.337 58.4551 48.6419 58.156 49.0215C57.8684 49.3896 57.6441 49.8095 57.4831 50.2811C57.3335 50.7412 57.2588 51.2014 57.2588 51.6615C57.2588 52.1791 57.3508 52.668 57.5348 53.1282C57.7189 53.5883 57.972 54.0024 58.2941 54.3705C58.6277 54.7271 59.0073 55.009 59.4329 55.216C59.87 55.4116 60.3359 55.5094 60.8306 55.5094ZM66.7025 56.1133V47.1407H67.5653V56.1133H66.7025ZM66.7025 45.1046V43.5171H67.5653V45.1046H66.7025ZM73.4152 55.6819C73.3577 55.7049 73.2427 55.7624 73.0701 55.8545C72.8976 55.9465 72.679 56.0328 72.4144 56.1133C72.1499 56.1823 71.8565 56.2168 71.5344 56.2168C71.2238 56.2168 70.9305 56.1593 70.6544 56.0443C70.3899 55.9177 70.177 55.7337 70.016 55.4921C69.855 55.2505 69.7744 54.9572 69.7744 54.6121V47.8481H68.5148V47.1407H69.7744V44.0693H70.6372V47.1407H72.725V47.8481H70.6372V54.405C70.6602 54.7386 70.781 54.9917 70.9995 55.1643C71.2181 55.3253 71.4712 55.4058 71.7588 55.4058C72.1154 55.4058 72.4259 55.3483 72.6905 55.2333C72.9551 55.1067 73.1104 55.0262 73.1564 54.9917L73.4152 55.6819ZM73.3343 53.525C73.3343 52.9844 73.4954 52.5185 73.8175 52.1274C74.1396 51.7248 74.5825 51.4142 75.1461 51.1956C75.7098 50.9655 76.3597 50.8505 77.0959 50.8505C77.5561 50.8505 78.0335 50.8908 78.5281 50.9713C79.0227 51.0518 79.4656 51.1611 79.8567 51.2991V50.4536C79.8567 49.6254 79.6152 48.964 79.132 48.4693C78.6604 47.9747 78.0047 47.7274 77.165 47.7274C76.7163 47.7274 76.2504 47.8194 75.7673 48.0034C75.2842 48.1875 74.7895 48.4521 74.2834 48.7972L73.921 48.176C74.5077 47.7849 75.0713 47.4915 75.612 47.296C76.1642 47.0889 76.7106 46.9854 77.2512 46.9854C78.321 46.9854 79.1665 47.3017 79.7877 47.9344C80.4089 48.5671 80.7195 49.4299 80.7195 50.5227V54.9745C80.7195 55.1125 80.7482 55.216 80.8058 55.285C80.8748 55.3541 80.9726 55.3943 81.0991 55.4058V56.1133C80.9956 56.1248 80.9093 56.1305 80.8403 56.1305C80.7712 56.1305 80.7137 56.1305 80.6677 56.1305C80.4492 56.096 80.2766 56.004 80.1501 55.8545C80.035 55.7049 79.9718 55.5381 79.9603 55.3541V54.6466C79.5461 55.1643 79.0112 55.5669 78.3555 55.8545C77.7114 56.142 77.0327 56.2858 76.3195 56.2858C75.7558 56.2858 75.2439 56.165 74.7838 55.9235C74.3351 55.6819 73.9785 55.3541 73.714 54.9399C73.4609 54.5143 73.3343 54.0427 73.3343 53.525ZM79.5116 54.267C79.6267 54.1175 79.7129 53.9737 79.7705 53.8356C79.828 53.6976 79.8567 53.571 79.8567 53.456V51.9721C79.4426 51.811 79.0112 51.6903 78.5626 51.6097C78.114 51.5292 77.6538 51.4889 77.1822 51.4889C76.2849 51.4889 75.5545 51.6672 74.9908 52.0239C74.4387 52.3805 74.1626 52.8636 74.1626 53.4733C74.1626 53.8529 74.2604 54.2037 74.4559 54.5258C74.6515 54.8479 74.9218 55.1067 75.2669 55.3023C75.6235 55.4979 76.0319 55.5956 76.492 55.5956C77.1362 55.5956 77.7286 55.4748 78.2693 55.2333C78.8214 54.9802 79.2356 54.6581 79.5116 54.267ZM82.5504 43.5171H83.4304V54.336C83.4304 54.7501 83.5167 55.0377 83.6892 55.1988C83.8618 55.3483 84.0861 55.4231 84.3622 55.4231C84.5462 55.4231 84.736 55.4058 84.9316 55.3713C85.1271 55.3368 85.2997 55.2908 85.4492 55.2333L85.6218 55.9407C85.4262 56.0098 85.1847 56.073 84.8971 56.1305C84.6095 56.1881 84.3622 56.2168 84.1551 56.2168C83.672 56.2168 83.2809 56.073 82.9818 55.7854C82.6942 55.4864 82.5504 55.0895 82.5504 54.5948V43.5171Z" fill="white"/>
<path d="M89.1167 56.9145C88.7859 56.9145 88.5025 56.7981 88.2665 56.5653C88.0337 56.3324 87.9188 56.0505 87.9219 55.7197C87.9188 55.3949 88.0337 55.1176 88.2665 54.8879C88.5025 54.655 88.7859 54.5386 89.1167 54.5386C89.4292 54.5386 89.705 54.655 89.9439 54.8879C90.186 55.1176 90.3085 55.3949 90.3116 55.7197C90.3085 55.9403 90.2503 56.1409 90.137 56.3217C90.0267 56.5024 89.8811 56.6464 89.7004 56.7537C89.5227 56.8609 89.3281 56.9145 89.1167 56.9145Z" fill="white"/>
<g clip-path="url(#clip0_96_601)">
<path fill-rule="evenodd" clip-rule="evenodd" d="M47.8781 25.1602C49.6583 24.0982 52.1387 23.2217 54.965 22.7578C56.9443 22.433 58.8463 22.3509 60.5267 22.4773C60.7622 21.5585 60.927 20.6117 61.0152 19.6425C61.0284 18.6885 61.0375 17.7348 60.7138 16.8148C60.386 15.8834 59.7172 14.9863 58.5633 14.2696C57.4094 13.5529 55.7702 13.0162 54.4095 12.7779C53.0488 12.5396 51.9669 12.5994 50.8849 12.6594C48.0801 12.9413 45.4575 13.8021 43.1521 15.1137C43.0919 15.1506 43.0298 15.1865 42.9658 15.221C42.2165 15.6259 41.2186 15.8617 40.3309 15.8617C37.6517 15.7564 35.5119 13.5531 35.5119 10.8504C35.5119 10.0724 35.6892 9.33586 36.0057 8.67877C36.0739 8.53727 36.1484 8.39956 36.2291 8.2658C38.5341 4.17535 42.9059 1.40285 47.9294 1.36229C48.0754 1.31512 48.1809 1.17703 48.1809 1.01441C48.1809 0.860651 48.0867 0.729158 47.9534 0.675202C47.9277 0.668033 47.902 0.660864 47.8764 0.653695C46.3386 0.227708 44.7181 0 43.0443 0C33.1963 0 25.1909 7.88169 25.0025 17.676C25.0025 17.6766 25.0025 17.6773 25.0025 17.6779C25.0008 17.7822 24.9998 17.8867 24.9998 17.9914C24.9998 23.8952 27.8401 29.1363 32.2299 32.425C32.2938 32.4727 32.358 32.5202 32.4224 32.5672C33.2385 33.1407 34.2334 33.4777 35.307 33.4777C36.6477 33.4777 37.8654 32.9526 38.7657 32.0971C40.7831 30.3684 42.8004 28.6398 44.3227 27.4816C45.8344 26.3315 46.858 25.7441 47.8781 25.1607V25.1602Z" fill="white"/>
<path fill-rule="evenodd" clip-rule="evenodd" d="M44.4778 12.8935C46.0543 11.6417 48.8366 10.7618 52.0312 10.6462C52.8273 10.1295 53.5004 9.52934 54.0087 8.88263C54.639 9.3986 55.073 10.0436 55.2467 10.7884C56.9191 11.0024 58.4138 11.4274 59.601 12.0009C58.59 6.63007 53.8705 2.56641 48.2012 2.56641C46.601 2.56641 45.0762 2.89014 43.6893 3.47573C43.6708 3.48347 43.6525 3.49139 43.6341 3.49912C43.5446 3.54874 43.4842 3.64401 43.4842 3.75343C43.4842 3.91379 43.6143 4.04396 43.775 4.04396C43.7927 4.04396 43.8103 4.04245 43.8271 4.03925C44.6785 3.8404 45.566 3.73513 46.4782 3.73513C47.3742 3.73513 48.2464 3.83663 49.084 4.02868C49.215 4.05679 49.3134 4.17338 49.3134 4.31261C49.3134 4.41788 49.2573 4.51013 49.1735 4.56107C49.1469 4.5773 49.1174 4.58937 49.0859 4.59616C46.3196 5.72735 44.3707 8.44362 44.3707 11.6148C44.3707 12.0505 44.4076 12.4777 44.4782 12.8933L44.4778 12.8935Z" fill="white"/>
<path fill-rule="evenodd" clip-rule="evenodd" d="M55.6235 24.4693C53.3965 24.8349 51.0053 25.51 48.9676 26.5789C48.7354 26.7036 48.5069 26.8281 48.2801 26.963C48.2771 26.9647 48.2747 26.9662 48.2716 26.9679C47.7318 27.2767 47.1959 27.5873 46.6704 27.9206C45.9731 28.363 45.3003 28.8382 44.6432 29.3382C42.9192 30.6497 41.2498 32.0929 39.6002 33.5107L38.6867 34.2944C38.6774 34.3023 38.6695 34.3087 38.6597 34.3161C38.2252 34.6453 37.8073 34.8262 37.3477 34.9954C37.3009 35.0126 37.2577 35.0354 37.2186 35.0628C37.9282 35.3044 38.6576 35.5033 39.4039 35.6561C39.4193 35.6452 39.435 35.6342 39.4505 35.6231C39.4539 35.6206 39.4567 35.6186 39.4601 35.6161C39.6673 35.4612 39.8587 35.3103 40.0481 35.1324C40.0547 35.1262 40.0606 35.1211 40.0674 35.115C41.0419 34.2798 42.0164 33.4441 43.0004 32.6199C43.8416 31.9152 44.6919 31.2129 45.5654 30.5484C46.1881 30.0747 46.8256 29.624 47.4863 29.2048C47.5634 29.1559 48.2548 28.7205 48.3778 28.6694C48.4048 28.6581 48.427 28.6469 48.4522 28.6318C48.6536 28.5109 48.8561 28.3862 49.0592 28.2702L49.4554 28.0436C49.4586 28.0417 49.4614 28.0402 49.4648 28.0383C51.3973 26.9809 53.7326 26.3214 55.8701 25.9705C57.1134 25.7663 58.261 25.6554 59.3908 25.6433C59.6229 25.1492 59.8332 24.6429 60.0203 24.1254C58.6024 24.0964 57.1785 24.2143 55.6233 24.4695L55.6235 24.4693Z" fill="white"/>
<path fill-rule="evenodd" clip-rule="evenodd" d="M56.7092 27.5418C54.4822 27.9074 52.091 28.5824 50.0533 29.6513L50.0496 29.6445L49.8039 29.7851C49.8009 29.7868 49.7984 29.7883 49.7954 29.7898C49.6502 29.8696 49.5071 29.9515 49.366 30.0352C49.363 30.0369 49.3605 30.0385 49.3575 30.0402C48.8177 30.349 48.2818 30.6595 47.7563 30.9929C47.059 31.4353 46.3862 31.9105 45.7291 32.4104C44.2594 33.5286 42.8355 34.7456 41.4295 35.9479C41.9613 35.9951 42.4998 36.0191 43.0438 36.0191C43.2655 36.0191 43.4862 36.0151 43.7058 36.0072C44.6722 35.1895 45.6511 34.3815 46.6513 33.6205C47.274 33.1468 47.9115 32.6961 48.5722 32.2769C48.8705 32.0876 49.1725 31.9062 49.4767 31.7281L49.4821 31.7373L50.1242 31.3543C50.1274 31.3524 50.13 31.3509 50.1332 31.3491C50.1372 31.3468 50.1411 31.3445 50.1451 31.3423L50.5413 31.1157C50.5445 31.1138 50.5473 31.1123 50.5507 31.1104C52.4831 30.053 54.8185 29.3934 56.956 29.0425C57.0865 29.0212 57.2176 29.0007 57.349 28.981C57.761 28.4464 58.1437 27.8881 58.4948 27.3086C57.8928 27.3667 57.2957 27.4454 56.7092 27.5416V27.5418Z" fill="white"/>
<path fill-rule="evenodd" clip-rule="evenodd" d="M55.6159 30.9219C53.9741 31.3147 52.3221 31.8804 50.854 32.6507L50.8502 32.6439L50.6045 32.7845C50.6015 32.7862 50.599 32.7877 50.596 32.7892C50.4508 32.869 50.3077 32.9507 50.1666 33.0346C50.1636 33.0363 50.1612 33.0378 50.1581 33.0395C49.6183 33.3484 49.0824 33.6589 48.5569 33.9923C47.8596 34.4347 47.1868 34.9099 46.5297 35.4098C46.3731 35.5289 46.2174 35.6492 46.0623 35.7705C49.7461 35.1497 53.0506 33.4137 55.6161 30.9219H55.6159Z" fill="white"/>
</g>
<defs>
<clipPath id="clip0_96_601">
<rect width="36.8825" height="36.8825" fill="white" transform="translate(25)"/>
</clipPath>
</defs>
</svg>
